# xmcd CD database file
#
# Track frame offsets:
#	150
#	14111
#	25415
#	38953
#	51434
#	63456
#	74783
#	87022
#	100496
#	111562
#	124588
#	137033
#	147510
#	161003
#	173684
#	185983
#	198801
#	211074
#	224259
#	236780
#	250583
#	263882
#	276606
#	289799
#	302060
#
# Disc length: 4192 seconds
#
# Revision: 4
# Processed by: cddbd v1.5.2PL0 Copyright (c) Steve Scherf et al.
# Submitted via: CDex 1.51
#
DISCID=95105e19
DTITLE=Artie Shaw - Begin The Beguine  [CD 02-10]
DYEAR=2005
DGENRE=Jazz
TTITLE0=Sweet Lorraine
TTITLE1=Love Is Good For Anything That Ails You
TTITLE2=No More Tears
TTITLE3=Moonlight And Shadows
TTITLE4=Was It Rain ¿
TTITLE5=All Alone
TTITLE6=All God's Chillun Got Rhythm
TTITLE7=It Goes To Your Feet
TTITLE8=Because I Love You
TTITLE9=Night And Day
TTITLE10=I Surrender, Dear
TTITLE11=Blue Skies
TTITLE12=Someday, Sweetheart
TTITLE13=Afraid To Dream
TTITLE14=If You Should Ever Leave
TTITLE15=Sweet Adeline
TTITLE16=How Dry I Am
TTITLE17=Am I In Love ¿
TTITLE18=Fee Fi Fo Fum
TTITLE19=Please Pardon Us, We're In Love
TTITLE20=The Chant
TTITLE21=The Blues March  (Part 1)
TTITLE22=The Blues March  (Part 2)
TTITLE23=It's A Long, Long Way To Tipperary
TTITLE24=I've A Strange New Rhythm In My Heart
EXTD=YEAR: 2005
EXTT0=
EXTT1=
EXTT2=
EXTT3=
EXTT4=
EXTT5=
EXTT6=
EXTT7=
EXTT8=
EXTT9=
EXTT10=
EXTT11=
EXTT12=
EXTT13=
EXTT14=
EXTT15=
EXTT16=
EXTT17=
EXTT18=
EXTT19=
EXTT20=
EXTT21=
EXTT22=
EXTT23=
EXTT24=
PLAYORDER=
